<svg width="28" height="28" viewBox="0 0 28 28" fill="none" xmlns="http://www.w3.org/2000/svg">
<path d="M7.87503 8.75001C7.95638 8.83202 8.05315 8.89712 8.15978 8.94154C8.26641 8.98596 8.38077 9.00883 8.49628 9.00883C8.61179 9.00883 8.72616 8.98596 8.83279 8.94154C8.93942 8.89712 9.03619 8.83202 9.11753 8.75001L13.1425 4.72501V25.3225C13.1425 25.5546 13.2347 25.7771 13.3988 25.9412C13.5629 26.1053 13.7855 26.1975 14.0175 26.1975C14.2496 26.1975 14.4722 26.1053 14.6363 25.9412C14.8003 25.7771 14.8925 25.5546 14.8925 25.3225V4.74251L18.8913 8.75001C19.0552 8.91298 19.277 9.00445 19.5082 9.00445C19.7393 9.00445 19.9611 8.91298 20.125 8.75001C20.288 8.58607 20.3795 8.3643 20.3795 8.13313C20.3795 7.90197 20.288 7.6802 20.125 7.51626L14.56 1.95126C14.4882 1.87636 14.4019 1.81676 14.3064 1.77605C14.2109 1.73533 14.1082 1.71435 14.0044 1.71435C13.9006 1.71435 13.7979 1.73533 13.7024 1.77605C13.6069 1.81676 13.5206 1.87636 13.4488 1.95126L7.87503 7.50751C7.79302 7.58885 7.72793 7.68563 7.6835 7.79226C7.63908 7.89888 7.61621 8.01325 7.61621 8.12876C7.61621 8.24427 7.63908 8.35864 7.6835 8.46526C7.72793 8.57189 7.79302 8.66867 7.87503 8.75001Z" fill="white"/>
</svg>
