<svg width="28" height="28" viewBox="0 0 28 28" fill="none" xmlns="http://www.w3.org/2000/svg">
<path d="M20.125 19.25C20.0436 19.168 19.9468 19.1029 19.8402 19.0585C19.7336 19.014 19.6192 18.9912 19.5037 18.9912C19.3882 18.9912 19.2738 19.014 19.1672 19.0585C19.0606 19.1029 18.9638 19.168 18.8825 19.25L14.8575 23.275V2.67749C14.8575 2.44543 14.7653 2.22287 14.6012 2.05877C14.4371 1.89468 14.2145 1.80249 13.9825 1.80249C13.7504 1.80249 13.5278 1.89468 13.3637 2.05877C13.1997 2.22287 13.1075 2.44543 13.1075 2.67749V23.2575L9.10872 19.25C8.94477 19.087 8.723 18.9955 8.49184 18.9955C8.26068 18.9955 8.03891 19.087 7.87497 19.25C7.712 19.4139 7.62052 19.6357 7.62052 19.8669C7.62052 20.098 7.712 20.3198 7.87497 20.4837L13.44 26.0487C13.5118 26.1236 13.5981 26.1832 13.6936 26.224C13.7891 26.2647 13.8918 26.2857 13.9956 26.2857C14.0994 26.2857 14.2021 26.2647 14.2976 26.224C14.3931 26.1832 14.4794 26.1236 14.5512 26.0487L20.125 20.4925C20.207 20.4111 20.2721 20.3144 20.3165 20.2077C20.3609 20.1011 20.3838 19.9868 20.3838 19.8712C20.3838 19.7557 20.3609 19.6414 20.3165 19.5347C20.2721 19.4281 20.207 19.3313 20.125 19.25Z" fill="white"/>
</svg>
