<svg width="43" height="11" viewBox="0 0 43 11" fill="none" xmlns="http://www.w3.org/2000/svg">
<path d="M5.29102 4.94824C5.29102 5.99186 5.23405 6.84863 5.12012 7.51855C5.00618 8.18392 4.82845 8.70801 4.58691 9.09082C4.34993 9.47363 4.05371 9.73796 3.69824 9.88379C3.34277 10.0251 2.93034 10.0957 2.46094 10.0957C2.19206 10.0957 1.91406 10.0934 1.62695 10.0889C1.3444 10.0843 1.08236 10.0729 0.84082 10.0547C0.699544 10.0456 0.560547 10.0365 0.423828 10.0273C0.291667 10.0182 0.159505 10.0091 0.0273438 10V0.197266C0.154948 0.188151 0.282552 0.179036 0.410156 0.169922C0.53776 0.160807 0.667643 0.151693 0.799805 0.142578C1.02311 0.124349 1.26693 0.112956 1.53125 0.108398C1.80013 0.103841 2.05534 0.101562 2.29688 0.101562C2.78906 0.101562 3.22201 0.160807 3.5957 0.279297C3.97396 0.393229 4.28841 0.625651 4.53906 0.976562C4.79427 1.32747 4.9834 1.81738 5.10645 2.44629C5.22949 3.0752 5.29102 3.90918 5.29102 4.94824ZM4.04688 5.04395C4.04688 4.2054 4.0127 3.52865 3.94434 3.01367C3.87598 2.4987 3.77572 2.10221 3.64355 1.82422C3.51595 1.54622 3.36328 1.36165 3.18555 1.27051C3.01237 1.1748 2.81868 1.12695 2.60449 1.12695C2.47233 1.12695 2.32878 1.12923 2.17383 1.13379C2.02344 1.13835 1.8776 1.14518 1.73633 1.1543C1.64974 1.15885 1.56543 1.16341 1.4834 1.16797C1.40137 1.17253 1.32161 1.17708 1.24414 1.18164V9.02246C1.31706 9.02702 1.38997 9.03158 1.46289 9.03613C1.54036 9.04069 1.61784 9.04525 1.69531 9.0498C1.82292 9.05892 1.96647 9.06576 2.12598 9.07031C2.28548 9.07487 2.44043 9.07715 2.59082 9.07715C2.80501 9.07715 3.00326 9.01107 3.18555 8.87891C3.36784 8.74674 3.52279 8.52344 3.65039 8.20898C3.77344 7.89909 3.86914 7.48665 3.9375 6.97168C4.01042 6.45215 4.04688 5.80957 4.04688 5.04395ZM11.9902 8.97461V10H7.39648V0.197266H11.9902V1.22266H8.61328V4.42871H11.6416V5.44727H8.61328V8.97461H11.9902ZM18.6074 0.197266V1.22266H15.2305V4.56543H18.2588V5.59082H15.2305V10H14.0137V0.197266H18.6074ZM22.5791 0.197266L24.9033 10H23.6523L23.126 7.52539H20.3916L19.8447 10H18.6006L20.9658 0.197266H22.5791ZM20.6172 6.47266H22.9004L21.752 1.12695L20.6172 6.47266ZM30.1123 0.197266H31.3291V7.40918C31.3291 8.35254 31.0921 9.03613 30.6182 9.45996C30.1488 9.88379 29.513 10.0957 28.7109 10.0957C27.9089 10.0957 27.2686 9.88379 26.79 9.45996C26.3161 9.03613 26.0791 8.35254 26.0791 7.40918V0.197266H27.2959V7.67578C27.2959 8.17253 27.4258 8.53027 27.6855 8.74902C27.9499 8.96777 28.2917 9.07715 28.7109 9.07715C29.1302 9.07715 29.4674 8.96777 29.7227 8.74902C29.9824 8.53027 30.1123 8.17253 30.1123 7.67578V0.197266ZM37.9873 8.93359V10H33.6465V0.197266H34.8633V8.93359H37.9873ZM42.9502 0.197266V1.26367H40.7969V10H39.5732V1.26367H37.4199V0.197266H42.9502Z" fill="white"/>
</svg>
