<svg width="82" height="82" viewBox="0 0 82 82" fill="none" xmlns="http://www.w3.org/2000/svg">
  <path d="M10.25 27.3333V20.5C10.25 16.726 13.3094 13.6666 17.0833 13.6666H64.9167C68.6907 13.6666 71.75 16.726 71.75 20.5V27.3333M10.25 27.3333V47.8333M10.25 27.3333H30.75M71.75 27.3333V47.8333M71.75 27.3333H30.75M10.25 47.8333V61.5C10.25 65.274 13.3094 68.3333 17.0833 68.3333H30.75M10.25 47.8333H30.75M30.75 27.3333V47.8333M71.75 47.8333V61.5C71.75 65.274 68.6907 68.3333 64.9167 68.3333H30.75M71.75 47.8333H30.75M30.75 68.3333V47.8333M51.25 27.3333V47.8333V68.3333" stroke="black" stroke-width="2" stroke-linecap="round" stroke-linejoin="round"/>
</svg>
